<?xml version="1.0" encoding="UTF-8" standalone="no"?>
<svg xmlns:dc="http://purl.org/dc/elements/1.1/" xmlns:cc="http://creativecommons.org/ns#" xmlns:rdf="http://www.w3.org/1999/02/22-rdf-syntax-ns#" xmlns:svg="http://www.w3.org/2000/svg" xmlns="http://www.w3.org/2000/svg" xmlns:sodipodi="http://sodipodi.sourceforge.net/DTD/sodipodi-0.dtd" xmlns:inkscape="http://www.inkscape.org/namespaces/inkscape" id="logoBig" viewBox="0 0 12.116 32.000507" version="1.1" inkscape:version="0.92.2 5c3e80d, 2017-08-06" sodipodi:docname="cl-lutin-seul.svg" inkscape:export-filename="/home/lkaufmann/TMP-SiteWeb-Illustrations/logo-big.png" inkscape:export-xdpi="1333" inkscape:export-ydpi="1333" width="12.116" height="32.000507">
  <metadata id="metadata11">
    <rdf:RDF>
      <cc:Work rdf:about="">
        <dc:format>image/svg+xml</dc:format>
        <dc:type rdf:resource="http://purl.org/dc/dcmitype/StillImage"/>
        <dc:title/>
      </cc:Work>
    </rdf:RDF>
  </metadata>
  <defs id="defs9"/>
  <sodipodi:namedview pagecolor="#ebebeb" bordercolor="#666666" borderopacity="1" objecttolerance="10" gridtolerance="10" guidetolerance="10" inkscape:pageopacity="0" inkscape:pageshadow="2" inkscape:window-width="1050" inkscape:window-height="1631" id="namedview7" showgrid="false" inkscape:zoom="9.2222404" inkscape:cx="27.12138" inkscape:cy="15.503729" inkscape:window-x="1280" inkscape:window-y="0" inkscape:window-maximized="1" inkscape:current-layer="logoBig" fit-margin-top="0" fit-margin-left="0" fit-margin-right="0" fit-margin-bottom="0"/>
  <path style="fill:#ff6600" d="m 8.605,27.987634 c -0.322,0.207 -0.692,0.385 -1.085,0.513 l -0.034,0.01 c -0.269,0.091 -0.459,0.341 -0.459,0.635 0,0.015 0,0.029 10e-4,0.043 v -0.002 c 0.052,0.6 0.265,1.143 0.596,1.593 l -0.006,-0.009 c 0.761,1.082 1.961,1.533 2.679,1.009 0.718,-0.524 0.685,-1.826 -0.076,-2.907 -0.248,-0.355 -0.554,-0.651 -0.907,-0.88 l -0.013,-0.008 c -0.098,-0.063 -0.218,-0.1 -0.347,-0.1 -0.13,0 -0.251,0.038 -0.353,0.103 l 0.003,-0.002 z m -4.946,0.091 c -0.096,-0.058 -0.212,-0.092 -0.335,-0.092 -0.147,0 -0.282,0.048 -0.392,0.129 l 0.002,-0.001 c -0.284,0.215 -0.526,0.466 -0.725,0.749 l -0.007,0.011 c -0.761,1.081 -0.794,2.382 -0.076,2.907 0.718,0.525 1.919,0.073 2.68,-1.008 0.299,-0.41 0.505,-0.906 0.577,-1.445 l 0.002,-0.016 c 0.003,-0.023 0.004,-0.049 0.004,-0.075 0,-0.312 -0.212,-0.575 -0.5,-0.652 l -0.005,-10e-4 c -0.464,-0.122 -0.871,-0.295 -1.246,-0.517 l 0.022,0.012 z m 2.432,-12.733 c 1.828,-0.021 3.303,-1.508 3.303,-3.34 0,-0.252 -0.028,-0.498 -0.081,-0.734 l 0.004,0.022 C 8.726,8.4626341 8.103,7.0536341 7.851,5.1086341 c -0.089,-0.682 -0.621,-3.351 0.145,-3.83 1.225,-0.76600002 0.945,1.239 1.024,1.356 0.434,0.643 1.028,-0.919 0.792,-1.70200002 -0.299,-0.991 -1.366,-1.072 -2.234,-0.794 -1.584,0.508 -2.414,2.80700002 -2.923,4.20400002 -0.844,2.065 -1.508,4.475 -1.88,6.9799999 l -0.021,0.174 c -0.025,0.153 -0.039,0.329 -0.039,0.509 0,1.83 1.473,3.316 3.299,3.337 h 0.002 0.078 z m -0.034,12.123 c -1.982,0 -3.752,-1.323 -4.508,-3.368 -0.147,-0.389 -0.355,-0.723 -0.615,-1.009 l 0.002,0.002 c -0.566,-0.591 -0.92,-1.389 -0.936,-2.27 v -0.003 c 0,-1.156 0.646,-2.234 1.818,-3.037 1.205,-0.757 2.67,-1.206 4.24,-1.206 1.57,0 3.035,0.449 4.274,1.225 l -0.034,-0.02 c 1.172,0.802 1.818,1.881 1.818,3.037 -0.017,0.884 -0.371,1.683 -0.938,2.276 l 10e-4,-0.001 c -0.258,0.283 -0.466,0.617 -0.606,0.985 l -0.007,0.021 c -0.757,2.046 -2.526,3.368 -4.508,3.368 z" id="path5" inkscape:connector-curvature="0"/>
</svg>